<svg width="259" height="48" viewBox="0 0 259 48" fill="none" xmlns="http://www.w3.org/2000/svg">
<path d="M66.1138 31.093C64.9053 31.093 63.8389 30.8799 62.9147 30.5247C61.9906 30.0985 61.2797 29.6012 60.782 28.8908C60.2844 28.1805 60 27.399 59.929 26.5466H63.4835C63.5545 26.9018 63.6967 27.1859 63.91 27.4701C64.1233 27.7542 64.4076 27.9674 64.7631 28.1094C65.1185 28.2515 65.5451 28.3225 66.0427 28.3225C66.5403 28.3225 66.8958 28.2515 67.2512 28.1094C67.6067 27.9674 67.7489 27.8253 67.9621 27.5411C68.1043 27.328 68.1754 27.0439 68.1754 26.8307C68.1754 26.4756 68.0332 26.1914 67.82 25.9783C67.6067 25.7652 67.3223 25.6231 66.8958 25.481C66.4692 25.339 65.9716 25.1969 65.4029 25.1258C64.7631 24.9838 64.1233 24.8417 63.4835 24.6286C62.8436 24.4155 62.346 24.2023 61.8484 23.9182C61.3508 23.634 60.9953 23.2789 60.7109 22.8526C60.4266 22.4264 60.2844 21.8581 60.2844 21.2188C60.2844 20.4373 60.4977 19.727 60.9242 19.0876C61.3508 18.4483 61.9906 17.951 62.7726 17.5958C63.6256 17.2406 64.5498 17.0275 65.7583 17.0275C67.3934 17.0275 68.673 17.3827 69.5972 18.0931C70.5214 18.8035 71.0901 19.798 71.3034 21.1477H67.891C67.7489 20.7215 67.5356 20.4373 67.1801 20.1532C66.8247 19.9401 66.3271 19.798 65.6873 19.798C65.0474 19.798 64.5498 19.9401 64.1944 20.1532C63.8389 20.3663 63.6967 20.7215 63.6967 21.0767C63.6967 21.3608 63.8389 21.5739 64.0522 21.716C64.2654 21.9291 64.6209 22.0712 64.9764 22.2133C65.3318 22.3554 65.9005 22.4974 66.4692 22.5685C67.5356 22.7816 68.3887 22.9947 69.1707 23.2789C69.9527 23.563 70.5925 23.9182 71.019 24.4865C71.4455 24.9838 71.6588 25.7652 71.6588 26.6887C71.6588 27.5411 71.4455 28.3225 70.9479 28.9619C70.4503 29.6012 69.8105 30.1695 68.9574 30.5247C68.2465 30.8799 67.2512 31.093 66.1138 31.093Z" fill="#002B49"/>
<path d="M75.2844 15.4647C74.6446 15.4647 74.147 15.2516 73.7204 14.8964C73.2939 14.5412 73.0806 14.0439 73.0806 13.4046C73.0806 12.8363 73.2939 12.339 73.7204 11.9128C74.147 11.5576 74.6446 11.3445 75.2844 11.3445C75.9242 11.3445 76.4929 11.5576 76.9195 11.9128C77.346 12.268 77.5593 12.7653 77.5593 13.4046C77.5593 13.9729 77.346 14.4702 76.9195 14.8964C76.4929 15.3226 75.9242 15.4647 75.2844 15.4647ZM73.4361 30.8089V17.3117H77.0617V30.8089H73.4361Z" fill="#002B49"/>
<path d="M79.3366 30.8089V17.3117H82.5356L82.82 19.0876C83.2465 18.4483 83.8152 17.951 84.5261 17.5248C85.237 17.1696 86.019 16.9565 86.9432 16.9565C87.6541 16.9565 88.2228 17.0275 88.7915 17.2406C89.3603 17.4538 89.7868 17.6669 90.2133 18.0221C90.6399 18.3772 90.9953 18.8035 91.2086 19.3007C91.7062 18.5904 92.346 18.0221 93.128 17.5958C93.91 17.1696 94.8342 16.9565 95.7584 16.9565C96.9669 16.9565 97.8911 17.1696 98.6731 17.6669C99.455 18.1641 100.024 18.8035 100.45 19.727C100.877 20.6505 101.019 21.716 101.019 22.9947V30.7378H97.4645V23.2788C97.4645 22.2133 97.2513 21.3608 96.8247 20.7925C96.3982 20.2242 95.7584 19.9401 94.9053 19.9401C94.3366 19.9401 93.8389 20.0822 93.4124 20.3663C92.9859 20.6505 92.6304 21.0767 92.4171 21.5739C92.2039 22.0712 92.0617 22.7816 92.0617 23.492V30.6668H88.4361V23.2078C88.4361 22.1422 88.2228 21.2898 87.7963 20.7215C87.3697 20.1532 86.7299 19.869 85.8058 19.869C85.237 19.869 84.7394 20.0111 84.3129 20.2953C83.8863 20.5794 83.5309 21.0056 83.3176 21.5029C83.1043 22.0712 82.9622 22.7106 82.9622 23.4209V30.5957H79.3366V30.8089Z" fill="#002B49"/>
<path d="M103.294 36.634V17.2406H106.493L106.919 19.0876C107.204 18.6614 107.559 18.3062 107.915 18.0221C108.341 17.6669 108.768 17.4538 109.337 17.2406C109.905 17.0275 110.545 16.9565 111.256 16.9565C112.536 16.9565 113.602 17.2406 114.597 17.88C115.592 18.5193 116.303 19.3718 116.872 20.4373C117.441 21.5029 117.725 22.7106 117.725 24.0603C117.725 25.41 117.441 26.6176 116.872 27.6832C116.303 28.7488 115.521 29.6012 114.597 30.1695C113.602 30.8088 112.536 31.093 111.327 31.093C110.332 31.093 109.479 30.8799 108.768 30.5247C108.057 30.1695 107.417 29.6723 106.991 29.0329V36.634H103.294ZM110.403 27.9673C111.114 27.9673 111.754 27.8253 112.322 27.4701C112.891 27.1149 113.318 26.6887 113.602 26.1204C113.886 25.5521 114.028 24.8417 114.028 24.0603C114.028 23.2789 113.886 22.6395 113.602 22.0002C113.318 21.4319 112.891 20.9346 112.322 20.5794C111.754 20.2242 111.185 20.0821 110.403 20.0821C109.692 20.0821 109.052 20.2242 108.555 20.5794C107.986 20.9346 107.559 21.3608 107.275 21.9291C106.991 22.4974 106.777 23.2078 106.777 23.9892C106.777 24.7706 106.919 25.41 107.275 26.0493C107.559 26.6176 107.986 27.1149 108.555 27.399C109.123 27.7542 109.763 27.9673 110.403 27.9673Z" fill="#002B49"/>
<path d="M119.431 30.8089V11.5576H123.057V30.8089H119.431Z" fill="#002B49"/>
<path d="M131.659 31.093C130.308 31.093 129.1 30.8089 128.033 30.2406C126.967 29.6723 126.185 28.8198 125.616 27.8253C125.047 26.7597 124.763 25.5521 124.763 24.2023C124.763 22.7816 125.047 21.5739 125.616 20.4373C126.185 19.3718 126.967 18.5193 128.033 17.88C129.1 17.2406 130.308 16.9565 131.659 16.9565C133.009 16.9565 134.147 17.2406 135.142 17.8089C136.137 18.3772 136.919 19.1587 137.488 20.1532C138.057 21.1477 138.341 22.2843 138.341 23.563C138.341 23.7761 138.341 23.9182 138.341 24.1313C138.341 24.3444 138.341 24.5575 138.27 24.8417H127.322V22.6395H134.716C134.645 21.7871 134.36 21.0767 133.791 20.5794C133.223 20.0822 132.512 19.798 131.659 19.798C131.019 19.798 130.521 19.9401 129.953 20.2242C129.455 20.5084 129.028 20.9346 128.744 21.5029C128.46 22.0712 128.318 22.7816 128.318 23.634V24.4155C128.318 25.1258 128.46 25.7652 128.744 26.3335C129.028 26.9018 129.384 27.328 129.882 27.6122C130.379 27.8963 130.948 28.0384 131.588 28.0384C132.227 28.0384 132.796 27.8963 133.223 27.6122C133.649 27.328 134.005 26.9728 134.218 26.5466H137.915C137.63 27.399 137.275 28.1094 136.635 28.8198C136.066 29.5302 135.355 30.0274 134.502 30.4537C133.649 30.8799 132.725 31.093 131.659 31.093Z" fill="#002B49"/>
<path d="M139.976 17.2406H142.038L142.251 19.4428C142.536 19.0166 142.891 18.5904 143.318 18.2352C143.744 17.88 144.313 17.5248 144.953 17.3117C145.593 17.0986 146.303 16.9565 147.085 16.9565C148.365 16.9565 149.502 17.2406 150.498 17.88C151.493 18.5193 152.204 19.3718 152.773 20.4373C153.341 21.5029 153.555 22.7106 153.555 24.0603C153.555 25.41 153.27 26.6176 152.773 27.6832C152.204 28.7488 151.493 29.6012 150.498 30.1695C149.502 30.8088 148.365 31.093 147.085 31.093C146.019 31.093 145.024 30.8799 144.171 30.4537C143.318 30.0274 142.678 29.3881 142.251 28.6067V36.705H139.976V17.2406ZM146.801 29.175C147.654 29.175 148.436 28.9619 149.147 28.5357C149.858 28.1094 150.356 27.5411 150.782 26.7597C151.138 25.9783 151.351 25.1258 151.351 24.0603C151.351 23.0657 151.138 22.1422 150.782 21.3608C150.427 20.5794 149.858 20.0111 149.147 19.5849C148.436 19.1587 147.654 18.9455 146.801 18.9455C145.877 18.9455 145.095 19.1587 144.455 19.5849C143.744 20.0111 143.247 20.5794 142.891 21.3608C142.536 22.1422 142.322 22.9947 142.322 24.0603C142.322 25.1258 142.536 25.9783 142.891 26.7597C143.247 27.5411 143.815 28.1094 144.455 28.5357C145.095 28.9619 145.877 29.175 146.801 29.175Z" fill="#002B49"/>
<path d="M159.455 31.093C158.389 31.093 157.465 30.8799 156.754 30.5247C156.043 30.1695 155.474 29.6012 155.119 29.0329C154.763 28.3936 154.55 27.6832 154.55 26.9728C154.55 26.0493 154.763 25.2679 155.261 24.6286C155.758 23.9892 156.398 23.492 157.251 23.2078C158.104 22.8526 159.171 22.7106 160.308 22.7106H163.863C163.863 21.8581 163.72 21.1477 163.507 20.5794C163.223 20.0111 162.867 19.5849 162.37 19.3007C161.872 19.0166 161.303 18.8745 160.521 18.8745C159.668 18.8745 158.957 19.0876 158.318 19.5139C157.678 19.9401 157.322 20.5794 157.18 21.4319H154.905C155.047 20.4373 155.332 19.6559 155.901 19.0166C156.469 18.3772 157.109 17.88 157.962 17.5248C158.815 17.1696 159.668 17.0275 160.593 17.0275C161.872 17.0275 162.867 17.2406 163.72 17.7379C164.574 18.1641 165.142 18.8035 165.569 19.6559C165.995 20.4373 166.209 21.4319 166.209 22.4974V30.8089H164.218L164.076 28.3936C163.863 28.7488 163.649 29.104 163.365 29.4591C163.081 29.8143 162.796 30.0985 162.37 30.3116C162.014 30.5247 161.588 30.7378 161.09 30.8799C160.593 31.022 160.024 31.093 159.455 31.093ZM159.811 29.175C160.45 29.175 161.019 29.0329 161.517 28.8198C162.014 28.5357 162.441 28.1805 162.796 27.7542C163.152 27.328 163.436 26.8307 163.578 26.2624C163.792 25.6941 163.863 25.1258 163.863 24.5575V24.4865H160.521C159.668 24.4865 158.957 24.5575 158.389 24.7707C157.82 24.9838 157.465 25.2679 157.251 25.6231C157.038 25.9783 156.896 26.4045 156.896 26.9018C156.896 27.399 157.038 27.8253 157.251 28.1805C157.465 28.5357 157.82 28.8198 158.247 29.0329C158.673 29.104 159.171 29.175 159.811 29.175Z" fill="#002B49"/>
<path d="M169.052 36.634L172.322 29.246H171.54L166.209 17.2406H168.626L173.033 27.5411L177.654 17.2406H180L171.327 36.634H169.052Z" fill="#002B49"/>
<path fill-rule="evenodd" clip-rule="evenodd" d="M78.3411 36.705H77.2748C76.3506 36.705 75.2842 36.776 74.5733 37.9837C74.3601 38.3389 74.2179 38.8361 74.2179 39.3334C74.2179 40.3279 74.8577 40.8252 75.6397 40.8252C76.2084 40.8252 76.4928 40.6831 76.7771 40.47L76.706 40.8962C76.5639 41.3225 76.4217 42.1749 75.4264 42.1749C74.7155 42.1749 74.3601 41.8197 74.2179 41.6066H74.1468L73.7913 42.1039V42.1749C73.9335 42.317 74.0757 42.388 74.289 42.5301C74.5733 42.6722 75.071 42.7432 75.4264 42.7432C75.9951 42.7432 76.5639 42.6011 76.9904 42.1749C77.3458 41.7487 77.488 41.2514 77.6302 40.399L77.8435 39.3334C77.9856 38.0547 78.0567 37.7706 78.3411 36.705ZM77.4169 37.3443L76.8482 39.9017C76.6349 40.0438 76.5639 40.1148 76.2795 40.2569C76.1373 40.2569 76.0662 40.3279 75.924 40.3279C75.7108 40.3279 75.071 40.2569 75.071 39.3334C75.071 38.8361 75.2842 38.3389 75.5686 38.0547C76.0662 37.4864 76.7771 37.4154 77.2748 37.4154L77.4169 37.3443Z" fill="#002B49"/>
<path fill-rule="evenodd" clip-rule="evenodd" d="M79.5498 39.9727L79.692 39.1913C79.8341 38.4099 79.9763 37.9837 80.2607 37.6995C80.4029 37.5575 80.6161 37.4154 80.8294 37.4154C80.9716 37.4154 81.0427 37.4864 81.1849 37.5575H81.2559L81.5403 36.776V36.705C81.3981 36.634 81.327 36.634 81.1849 36.634C80.9716 36.634 80.6161 36.776 80.4029 37.1312C80.3318 37.2023 80.2607 37.3443 80.1896 37.4154L80.3318 36.705L80.2607 36.634C79.9052 36.705 79.8341 36.705 79.4076 36.776L79.3365 36.8471C79.1943 37.6285 79.1943 37.8416 78.9811 38.8361L78.8389 39.5465L78.5545 40.6831L78.6256 40.7542H79.4076L79.4787 40.6831L79.5498 39.9727Z" fill="#002B49"/>
<path fill-rule="evenodd" clip-rule="evenodd" d="M85.1658 39.0492C85.2369 38.7651 85.308 38.4809 85.308 38.1968C85.308 37.2023 84.6682 36.634 83.6729 36.634C81.9667 36.634 81.4691 38.3389 81.4691 39.2624C81.4691 40.3279 82.0378 40.8252 83.1042 40.8252C84.526 40.8252 85.0236 39.6886 85.1658 39.0492ZM84.3838 38.7651C84.2416 39.4044 83.9573 40.2569 83.1042 40.2569C82.6776 40.2569 82.3222 39.9727 82.3222 39.3334C82.3222 39.0492 82.4644 37.1312 83.6729 37.1312C83.9573 37.1312 84.4549 37.2733 84.4549 38.0547C84.4549 38.3389 84.4549 38.552 84.3838 38.7651Z" fill="#002B49"/>
<path fill-rule="evenodd" clip-rule="evenodd" d="M89.3601 39.4755L89.5733 38.623L89.9999 36.705V36.634L89.2179 36.705L89.1468 36.776C89.0757 37.3443 89.0046 37.4864 88.7913 38.4099L88.507 39.7596C88.2937 39.9017 87.9383 40.1859 87.4406 40.1859C87.2274 40.1859 86.8008 40.1148 86.8008 39.5465C86.8008 39.2624 86.943 38.6941 87.0141 38.4809C87.0852 38.3389 87.3695 36.9892 87.4406 36.705L87.3695 36.634H86.5875L86.5165 36.705C86.4454 37.1312 86.4454 37.2023 86.3032 37.7706L86.0899 38.552C85.9477 39.1203 85.8766 39.4044 85.8766 39.7596C85.8766 40.6121 86.5165 40.8252 87.0141 40.8252C87.4406 40.8252 87.9383 40.6121 88.2937 40.3279L88.2226 40.6831L88.2937 40.7542H89.0757L89.1468 40.6831L89.3601 39.4755Z" fill="#002B49"/>
<path fill-rule="evenodd" clip-rule="evenodd" d="M91.9905 36.705L91.1374 36.776L91.0663 36.8471C90.9952 37.2733 90.9952 37.4864 90.853 38.1968C90.7108 38.8361 90.5687 39.5465 90.4265 40.1859L90.2843 40.8252L89.8578 42.6011L89.9288 42.6722H90.7819L90.853 42.6011C90.9952 41.6776 91.0663 41.4645 91.2085 40.7542C91.3506 40.7542 91.4928 40.7542 91.635 40.7542C92.0615 40.7542 93.199 40.7542 93.981 39.7596C94.3364 39.3334 94.4786 38.7651 94.4786 38.1968C94.4786 37.2023 93.8388 36.634 93.0568 36.634C92.5592 36.634 92.2037 36.8471 91.9194 36.9892L91.9905 36.705ZM91.7772 37.6995C91.9194 37.5575 92.2037 37.3443 92.7014 37.3443C93.1279 37.3443 93.6255 37.6285 93.6255 38.3389C93.6255 39.2624 92.9146 40.2569 91.5639 40.2569C91.4217 40.2569 91.3506 40.2569 91.2085 40.2569L91.7772 37.6995Z" fill="#002B49"/>
<path fill-rule="evenodd" clip-rule="evenodd" d="M64.1942 39.1203C64.2653 38.8361 64.2653 38.623 64.2653 38.3389C64.2653 37.8416 64.1943 37.4154 63.7677 37.0602C63.4123 36.705 62.9146 36.634 62.417 36.634C60.3554 36.634 59.9999 38.552 59.9999 39.2624C59.9999 39.8307 60.1421 40.2569 60.4976 40.541C60.853 40.8962 61.4217 40.9673 61.8483 40.9673C62.417 40.9673 62.9857 40.8252 63.4123 40.47C63.8388 40.1148 64.0521 39.6175 64.1942 39.1203ZM62.8435 38.8361C62.7014 39.5465 62.4881 39.7596 62.417 39.8307C62.2748 39.9727 62.0615 40.1148 61.8483 40.1148C61.5639 40.1148 61.3507 39.9727 61.2796 39.7596C61.2796 39.6886 61.2085 39.6175 61.2085 39.4044C61.2085 39.0492 61.3507 38.1258 61.635 37.7706C61.7061 37.6995 61.9194 37.4154 62.2748 37.4154C62.7014 37.4154 62.8435 37.8416 62.8435 38.1258C62.9857 38.4099 62.9146 38.623 62.8435 38.8361Z" fill="#002B49"/>
<path fill-rule="evenodd" clip-rule="evenodd" d="M66.8957 39.9017C66.6824 39.9017 66.6113 39.9727 66.398 39.9727C66.2559 39.9727 66.0426 39.9017 66.0426 39.6175C66.0426 39.4755 66.1137 39.0492 66.1848 38.9072L66.5402 37.5575H67.2511L67.3222 37.4864C67.3933 37.1312 67.4644 37.0602 67.5355 36.705V36.634H66.7535L66.8957 35.9236L67.0379 35.2843L66.9668 35.2132C66.398 35.3553 66.2559 35.4263 65.6871 35.5684L65.616 35.6394L65.4028 36.634H64.9051L64.8341 36.705L64.6208 37.4864L64.6919 37.5575H65.2606L64.9762 38.623C64.8341 39.0492 64.6919 39.6175 64.6919 39.9727C64.6919 40.6831 65.1895 40.8962 65.9004 40.8962C66.1848 40.8962 66.327 40.8252 66.6113 40.8252L66.6824 40.7542L66.8957 39.9017Z" fill="#002B49"/>
<path fill-rule="evenodd" clip-rule="evenodd" d="M69.4549 36.634L68.0331 36.776L67.962 36.8471C67.8909 37.2733 67.8909 37.4864 67.7488 38.1968C67.6066 38.9072 67.4644 39.6175 67.3222 40.3279L67.18 40.8962L66.7535 42.7432L66.8246 42.8142C67.1089 42.8142 67.3222 42.8142 67.6066 42.8142C67.7488 42.8142 67.962 42.8142 68.1042 42.8142L68.1753 42.7432L68.5307 40.8962C69.3838 40.8962 70.308 40.8962 71.09 39.9727C71.5165 39.4755 71.7298 38.8361 71.7298 38.2678C71.7298 37.2733 71.2322 36.705 70.4502 36.705C69.9525 36.705 69.5971 36.9181 69.3838 37.0602L69.4549 36.634ZM69.2416 37.7706C69.3838 37.6285 69.5971 37.5575 69.8104 37.5575C69.9525 37.5575 70.3791 37.6285 70.3791 38.2678C70.3791 38.8361 70.0947 39.4044 69.8104 39.6886C69.526 39.9017 69.1705 40.0438 68.9573 40.0438C68.8862 40.0438 68.8151 40.0438 68.744 40.0438L69.2416 37.7706Z" fill="#002B49"/>
<path d="M22.3223 0.049509C19.4076 0.262622 16.6351 0.973001 14.1469 2.10961C5.75829 5.87461 0 14.2571 0 23.9892C0 37.2733 10.7346 48 24.0284 48C28.6493 48 32.9147 46.7213 36.6114 44.4481C41.4455 41.4645 45.1422 36.776 46.9194 31.3772C47.4881 29.5302 47.8436 27.6122 47.9858 25.6941C48.4834 20.9346 47.1327 15.2516 42.2986 13.3336C39.8104 12.339 37.0379 12.7653 34.8341 14.186C32.5592 15.6778 31.3507 18.1641 30.4265 20.6505C29.8578 22.2843 29.4313 24.0603 28.5071 25.5521C26.872 28.4646 23.673 30.7378 20.2607 30.9509C14.7867 31.2351 10.8768 26.5466 10.1659 21.5029C9.31279 15.7489 12.2275 9.07131 17.9858 7.08225C20.6161 6.15876 23.3886 6.72706 25.8768 7.9347C27.5118 8.71611 29.1469 9.78168 31.0663 9.63961C32.6303 9.49753 34.1943 8.64508 34.763 7.08225C35.9005 3.95659 32.6303 1.61234 30.0711 0.759887C27.5118 0.0495089 24.8104 -0.0925666 22.3223 0.049509Z" fill="url(#paint0_radial_2969_1963)"/>
<path d="M16.0664 18.4483C16.0664 20.7925 17.9858 22.6395 20.2607 22.6395C22.6067 22.6395 24.455 20.7215 24.455 18.4483C24.455 16.104 22.5356 14.2571 20.2607 14.2571C17.9148 14.2571 16.0664 16.104 16.0664 18.4483Z" fill="url(#paint1_radial_2969_1963)"/>
<defs>
<radialGradient id="paint0_radial_2969_1963" cx="0" cy="0" r="1" gradientUnits="userSpaceOnUse" gradientTransform="translate(45.6151 57.4322) scale(53.6519 53.6125)">
<stop offset="0.1997" stop-color="#61FF66"/>
<stop offset="0.8571" stop-color="#2CD5FF"/>
</radialGradient>
<radialGradient id="paint1_radial_2969_1963" cx="0" cy="0" r="1" gradientUnits="userSpaceOnUse" gradientTransform="translate(45.6151 57.4322) scale(53.6519 53.6125)">
<stop offset="0.1997" stop-color="#61FF66"/>
<stop offset="1" stop-color="#2CD5FF"/>
</radialGradient>
</defs>
</svg>
